<?xml version="1.0" standalone="no"?>
<!DOCTYPE svg PUBLIC "-//W3C//DTD SVG 20010904//EN"
 "http://www.w3.org/TR/2001/REC-SVG-20010904/DTD/svg10.dtd">
<svg version="1.0" xmlns="http://www.w3.org/2000/svg"
 width="640.000000pt" height="1280.000000pt" viewBox="0 0 640.000000 1280.000000"
 preserveAspectRatio="xMidYMid meet">
<metadata>
Created by potrace 1.15, written by Peter Selinger 2001-2017
</metadata>
<g transform="translate(0.000000,1280.000000) scale(0.100000,-0.100000)"
fill="#000000" stroke="none">
<path d="M3110 12794 c-14 -2 -56 -9 -95 -15 -82 -13 -216 -59 -283 -96 -90
-50 -240 -172 -287 -233 -59 -77 -156 -272 -184 -370 -32 -112 -48 -344 -33
-481 15 -130 59 -389 72 -425 14 -37 13 -37 -22 -11 -18 13 -64 42 -103 63
-38 21 -119 79 -180 129 -152 126 -350 238 -487 274 -237 63 -435 67 -585 12
-91 -33 -176 -74 -242 -115 -101 -64 -265 -259 -317 -376 -139 -318 -149 -556
-32 -825 46 -105 94 -169 219 -290 103 -100 124 -116 224 -164 272 -133 479
-184 809 -199 l139 -7 -185 -92 c-102 -50 -228 -121 -280 -157 -175 -121 -364
-330 -447 -494 -69 -136 -88 -201 -101 -335 -7 -71 -9 -145 -6 -165 25 -143
53 -237 102 -341 52 -110 59 -119 177 -236 157 -157 239 -209 422 -270 82 -27
294 -50 368 -41 336 43 632 269 851 648 62 108 142 286 177 396 13 41 26 67
30 60 3 -7 10 -47 13 -88 15 -159 54 -324 118 -505 58 -166 70 -191 152 -312
87 -131 145 -190 287 -296 41 -31 220 -113 298 -136 54 -16 55 -18 68 -66 28
-111 109 -209 213 -259 63 -30 68 -31 200 -30 110 1 146 5 193 22 31 11 57 19
57 17 0 -1 -36 -26 -79 -53 -134 -85 -311 -220 -420 -321 -199 -184 -432 -468
-584 -710 -195 -312 -478 -940 -573 -1271 l-24 -85 6 995 c3 547 9 1110 14
1250 5 140 13 440 19 665 6 226 12 443 15 483 3 52 1 72 -7 69 -6 -2 -14 -17
-18 -33 -4 -16 -12 -290 -19 -609 -6 -319 -15 -650 -21 -735 -5 -85 -12 -618
-15 -1185 l-6 -1030 -45 -170 c-24 -93 -63 -266 -87 -383 l-43 -214 -7 164
c-19 461 -90 821 -231 1178 -62 159 -95 223 -224 440 -77 129 -101 160 -221
284 -147 151 -191 187 -319 260 -120 69 -178 87 -301 93 -93 5 -110 3 -145
-15 -55 -28 -122 -87 -151 -133 -25 -41 -54 -193 -54 -290 0 -53 -15 -132 -31
-161 -12 -24 -12 -125 1 -133 6 -3 10 -15 10 -26 0 -27 44 -109 85 -157 32
-37 162 -112 195 -112 6 0 46 -16 87 -36 165 -80 353 -63 403 36 24 47 27 163
6 214 -8 18 -11 45 -9 60 3 15 1 37 -5 49 -6 12 -13 40 -16 62 -10 70 -93 219
-159 285 -33 33 -64 60 -69 60 -5 0 -26 11 -46 25 -30 21 -49 25 -105 25 -90
0 -131 -21 -234 -123 l-83 -82 0 41 c0 23 5 79 11 125 13 93 33 133 97 191 72
65 92 71 216 66 131 -6 168 -18 323 -109 93 -55 128 -83 253 -209 141 -141
148 -150 251 -325 132 -223 138 -234 214 -426 148 -370 213 -732 222 -1234 4
-234 2 -291 -16 -430 -11 -88 -25 -214 -30 -280 -6 -66 -25 -275 -43 -465
l-33 -345 1 -770 c0 -628 3 -805 17 -960 9 -104 19 -247 23 -317 5 -101 9
-128 21 -128 12 0 13 21 8 128 -4 70 -11 161 -16 202 -30 250 -38 1770 -10
2015 6 55 22 228 36 385 50 578 129 1080 223 1429 l29 105 6 -705 c4 -387 12
-810 17 -939 6 -129 22 -512 35 -850 13 -338 31 -712 40 -830 8 -118 21 -316
30 -440 20 -288 53 -530 72 -530 11 0 13 8 9 28 -26 131 -60 489 -71 742 -4
80 -11 188 -16 240 -10 103 -35 634 -45 980 l-6 215 32 125 c66 260 250 502
432 566 23 8 47 19 54 25 15 12 183 17 184 5 1 -5 -19 -17 -43 -26 -38 -15
-127 -89 -127 -106 0 -3 -9 -18 -21 -33 -42 -57 -34 -245 13 -287 10 -10 18
-23 18 -31 0 -7 5 -13 11 -13 6 0 25 -11 42 -23 88 -65 242 -94 335 -63 28 10
70 35 95 56 54 48 67 90 67 222 0 83 -3 100 -29 153 -50 101 -114 144 -251
167 -109 19 -291 16 -321 -5 -13 -10 -30 -17 -39 -17 -21 0 -146 -84 -198
-134 -92 -87 -206 -281 -237 -406 l-22 -85 -7 120 c-12 197 -25 998 -26 1520
l0 490 30 115 c93 354 379 1002 594 1344 210 335 511 668 791 876 132 98 367
252 374 245 2 -2 -14 -26 -36 -52 -47 -56 -71 -101 -114 -215 -27 -70 -32 -97
-33 -173 0 -84 2 -96 35 -166 53 -112 119 -169 264 -231 81 -34 240 -18 330
33 66 39 83 54 132 119 54 72 69 112 92 249 16 91 17 126 9 177 -5 35 -8 69
-6 74 2 5 31 -25 65 -68 68 -85 140 -162 151 -162 4 0 33 -18 65 -39 99 -66
257 -79 381 -31 110 42 212 161 247 285 36 131 16 251 -60 355 -33 46 -122
130 -138 130 -4 0 -44 18 -88 40 -44 22 -109 49 -145 59 l-65 19 34 12 c170
63 349 188 393 275 59 115 63 302 8 405 -28 53 -120 147 -167 170 -26 13 -59
31 -73 41 -32 22 -147 32 -208 18 -121 -28 -276 -133 -342 -233 -41 -63 -85
-116 -95 -116 -3 0 -5 36 -5 79 0 87 -20 208 -44 265 -8 20 -36 63 -61 95 -25
33 -45 63 -45 68 0 11 -89 65 -145 89 -67 28 -70 30 -80 60 -19 56 -95 185
-154 262 -32 43 -136 153 -230 244 -168 162 -217 215 -209 223 2 2 31 -2 63
-9 193 -44 567 -47 740 -6 320 75 522 206 673 436 73 110 138 308 147 449 16
221 -86 527 -228 689 -34 39 -69 77 -79 83 -9 7 -40 33 -68 57 -72 61 -164
107 -299 150 -112 35 -118 36 -277 36 -130 0 -180 -4 -251 -21 -212 -50 -371
-116 -563 -232 -112 -68 -205 -114 -198 -100 1 5 40 80 84 168 163 322 234
642 194 880 -16 91 -41 208 -50 230 -68 160 -142 271 -239 358 -56 50 -179
130 -255 166 -101 48 -398 100 -486 85z m-1470 -7642 c0 -72 -28 -126 -82
-153 -52 -27 -168 -27 -243 -2 l-50 18 60 6 c33 4 80 13 104 21 50 17 181 130
181 157 0 10 3 21 7 24 13 13 23 -18 23 -71z"/>
<path d="M905 4313 c-66 -14 -127 -48 -160 -89 -35 -42 -65 -126 -65 -179 0
-42 51 -135 107 -195 l53 -58 -57 1 c-98 1 -178 -18 -221 -53 -49 -39 -83 -84
-88 -118 -17 -100 -16 -131 5 -175 11 -24 21 -48 21 -54 0 -5 11 -15 25 -21
14 -7 30 -22 36 -35 30 -65 240 -61 345 8 13 8 25 15 27 15 2 0 -5 -26 -16
-57 -33 -101 -34 -154 -2 -234 23 -57 37 -76 74 -102 77 -55 93 -60 173 -55
61 4 81 10 120 37 60 41 83 70 104 133 16 50 17 51 29 27 45 -84 204 -1569
169 -1569 -2 0 -13 19 -25 43 -23 45 -109 132 -174 176 -59 40 -127 57 -174
42 -60 -18 -66 -31 -63 -138 5 -163 66 -275 158 -289 57 -8 89 1 136 38 30 24
38 36 38 63 0 41 -18 56 -75 63 -37 4 -45 2 -45 -12 0 -11 9 -16 29 -16 46 0
61 -10 61 -39 0 -21 -9 -31 -43 -50 -83 -45 -168 -10 -204 85 -16 42 -36 209
-28 235 3 8 20 23 38 31 31 15 38 15 87 -2 84 -28 197 -129 242 -216 33 -63
37 -80 49 -204 15 -173 7 -566 -23 -987 -19 -285 -20 -338 -2 -320 3 3 15 122
26 264 18 221 21 340 21 838 0 366 -4 622 -12 695 -6 63 -16 160 -21 215 -53
541 -110 974 -141 1063 -11 31 -23 86 -26 122 l-6 65 24 -21 c40 -35 124 -72
181 -79 119 -15 207 37 258 150 32 71 34 87 15 180 -16 82 -139 163 -278 183
l-51 7 65 45 c98 67 149 152 149 249 0 44 -5 55 -64 148 -21 33 -93 83 -119
83 -9 0 -28 5 -42 12 -18 8 -35 8 -62 0 -21 -6 -50 -13 -64 -16 -37 -8 -134
-106 -164 -166 -14 -28 -29 -48 -34 -46 -4 3 -16 33 -25 67 -21 73 -72 148
-118 171 -86 44 -122 53 -173 41z"/>
</g>
</svg>
